<?xml version="1.0" encoding="UTF-8"?>
<svg xmlns="http://www.w3.org/2000/svg" xmlns:xlink="http://www.w3.org/1999/xlink" width="264px" height="83px" viewBox="0 0 264 83" version="1.1">
<g id="surface1">
<path style=" stroke:none;fill-rule:nonzero;fill:rgb(95.686275%,0%,3.529412%);fill-opacity:1;" d="M 137.445312 23.085938 L 129.800781 23.085938 L 125.488281 30.097656 L 133.128906 30.097656 Z M 157.28125 41.53125 C 153.277344 41.863281 146.199219 45.457031 142.34375 53.304688 C 138.492188 61.152344 138.476562 66 138.476562 66 C 138.476562 66 140.507812 63.765625 143.625 61.425781 C 146.742188 59.085938 149.0625 58.253906 149.0625 58.253906 C 149.0625 58.253906 149.640625 55.375 151.078125 52.359375 C 152.476562 49.425781 154.699219 46.375 157.445312 45.683594 C 163.015625 44.277344 160.347656 54.46875 156.257812 61.113281 C 154.058594 64.6875 146.257812 74.953125 139.542969 74.953125 C 132.832031 74.953125 131.535156 68.460938 132.949219 62.390625 C 134.367188 56.324219 136.324219 48.617188 146.121094 34.609375 C 155.917969 20.601562 166.519531 12.296875 172.65625 8.808594 C 178.960938 5.226562 181.53125 6.796875 181.53125 6.796875 C 181.53125 6.796875 173.484375 11.765625 168.90625 17.746094 C 164.527344 23.457031 161.914062 29.890625 163.945312 33.039062 C 165.878906 36.042969 172.699219 36.097656 180.207031 25.230469 C 187.617188 14.503906 185.746094 8.125 185.746094 8.125 C 185.746094 8.125 186.640625 7.832031 187.242188 7.75 C 190.855469 7.269531 193.75 8.222656 198.234375 10.527344 C 202.929688 12.945312 207.433594 16.816406 213.609375 19.984375 C 215.46875 17.945312 217.535156 15.777344 219.710938 13.660156 C 211.390625 9.597656 205.070312 3.808594 196.90625 3.253906 C 189.804688 2.769531 184.203125 5.367188 184.203125 5.367188 C 184.203125 5.367188 182.035156 2.410156 175.347656 3.375 C 168.664062 4.339844 148.066406 12.976562 130.542969 41.109375 C 114.699219 66.546875 122.164062 81.125 133.554688 80.957031 C 145.898438 80.777344 157.644531 67.011719 161.617188 55.660156 C 165.59375 44.308594 160.894531 41.234375 157.28125 41.53125 Z M 181.519531 17.894531 C 179.441406 22.964844 176.386719 26.507812 173.382812 29.214844 C 169.527344 32.6875 167.410156 32.570312 166.496094 31.871094 C 164.101562 30.046875 167.3125 23.160156 172.882812 17 C 178.429688 10.867188 183.207031 8.957031 183.207031 8.957031 C 183.207031 9.03125 184 11.8125 181.519531 17.894531 Z M 250.265625 10.5 C 244.617188 14.144531 236.785156 17.441406 229.265625 16.714844 C 227.367188 18.695312 225.328125 20.976562 223.28125 23.46875 C 236.328125 26.050781 247.742188 17.945312 253.820312 11.039062 C 257.609375 6.734375 259.480469 2.890625 259.480469 2.890625 C 259.480469 2.890625 255.863281 6.890625 250.265625 10.5 Z M 250.265625 10.5 "/>
<path style=" stroke:none;fill-rule:nonzero;fill:rgb(95.686275%,0%,3.529412%);fill-opacity:1;" d="M 244.09375 42.46875 L 236.054688 42.46875 L 234.75 44.492188 C 234.75 44.492188 233.109375 41.527344 230.332031 41.574219 C 225.574219 41.65625 220.808594 45.296875 215.277344 51.617188 C 211.21875 56.242188 204.496094 66.546875 204.496094 66.546875 C 204.496094 66.546875 199.335938 74.519531 196.726562 73.894531 C 192.277344 72.828125 200.460938 56.324219 200.460938 56.324219 C 200.460938 56.324219 204.765625 53.660156 210.339844 48.957031 C 213.847656 46 217.886719 41.925781 221.601562 38.152344 C 224.976562 34.71875 228.953125 30.058594 232.734375 24.949219 C 231.765625 25.105469 230.773438 25.207031 229.761719 25.257812 C 226.371094 29.742188 222.75 33.753906 219.671875 36.945312 C 215.089844 41.691406 210.871094 45.578125 207.808594 48.054688 C 204.871094 50.425781 202.988281 51.496094 202.988281 51.496094 C 202.988281 51.496094 208.589844 39.964844 217.925781 27.222656 C 227.257812 14.484375 240.328125 2.652344 239.304688 8.265625 C 239.011719 9.878906 238.011719 12.191406 236.503906 14.933594 C 237.566406 14.710938 238.597656 14.433594 239.59375 14.121094 C 241.839844 9.464844 242.605469 5.628906 240.929688 4.523438 C 234.078125 0 216.660156 18.710938 207.925781 29.578125 C 199.195312 40.445312 191.289062 57.054688 191.289062 57.054688 C 191.289062 57.054688 189.925781 57.628906 188.414062 57.917969 C 187.460938 58.097656 187.054688 58.058594 186.898438 57.996094 C 186.820312 57.964844 186.8125 57.910156 186.8125 57.910156 C 186.8125 57.910156 194.492188 43.515625 186.628906 41.605469 C 179.039062 39.761719 165.886719 53.839844 161.210938 63.632812 C 158.003906 70.347656 156.195312 78.804688 161.695312 80.820312 C 167.65625 83 177.777344 72.09375 180.15625 68.925781 C 182.535156 65.753906 185.503906 60.484375 185.503906 60.484375 C 185.503906 60.484375 186.957031 60.40625 187.753906 60.289062 C 189.273438 60.066406 189.984375 59.878906 189.984375 59.878906 C 189.984375 59.878906 189 62.464844 187.933594 65.746094 C 185.945312 71.859375 184.152344 80.609375 191.304688 81.019531 C 195.863281 81.28125 202.546875 73.03125 202.546875 73.03125 C 202.546875 73.03125 200.75 80.367188 206.664062 81.019531 C 211.03125 81.503906 217.382812 74.738281 217.382812 74.738281 C 217.382812 74.738281 216 80.566406 220.425781 81.078125 C 224.214844 81.519531 229.59375 77.066406 234.003906 72.164062 C 238.820312 66.8125 242.515625 60.953125 242.515625 60.953125 L 239.714844 60.953125 C 239.714844 60.953125 233.515625 70.386719 229.164062 72.910156 C 225.59375 74.980469 226.816406 71.660156 227.898438 69.921875 C 229.09375 68 244.089844 42.46875 244.089844 42.46875 Z M 182.839844 60.230469 C 182.730469 60.484375 180.71875 63.996094 178.5625 66.753906 C 176.246094 69.730469 172 74.203125 169.445312 73.257812 C 165.457031 71.777344 169.847656 63.0625 172.71875 58.835938 C 175.589844 54.609375 175.914062 54.324219 175.996094 54.214844 C 176.074219 54.101562 176.15625 54.003906 176.226562 54.132812 C 176.296875 54.265625 177.210938 56 179.015625 57.507812 C 180.824219 59.019531 182.566406 59.820312 182.707031 59.871094 C 182.847656 59.917969 182.949219 59.980469 182.839844 60.230469 Z M 184.632812 57.089844 C 184.382812 57.511719 184.203125 57.53125 183.679688 57.394531 C 182.757812 57.144531 178.941406 55.375 178.972656 51.453125 C 178.996094 47.628906 184.371094 43.882812 186.480469 45.484375 C 188.449219 46.976562 187.507812 50.792969 186.765625 52.738281 C 186.027344 54.6875 184.800781 56.816406 184.632812 57.089844 Z M 221.160156 66.546875 C 220.097656 68.007812 219.207031 69.328125 218.40625 70.253906 C 216.695312 72.234375 215.578125 73.15625 214.585938 73.398438 C 214.082031 73.519531 213.460938 73.492188 213.050781 73.242188 C 211.589844 72.351562 212.613281 68.878906 215.15625 64.214844 C 217.480469 59.949219 220.171875 55.683594 224.589844 50.773438 C 229.027344 45.839844 230.726562 45.601562 231.96875 45.660156 C 233.011719 45.703125 233.160156 46.804688 233.160156 46.804688 C 233.160156 46.804688 233.085938 47.0625 232.921875 47.351562 C 231.457031 49.894531 224.078125 62.535156 221.15625 66.546875 Z M 102.566406 72.71875 C 97.691406 69.695312 91.4375 67.757812 84.25 67.695312 C 65.738281 67.535156 45.585938 76.550781 31.933594 76.671875 C 15.835938 76.8125 15.03125 64.394531 16.226562 57.578125 C 18.792969 42.886719 29.1875 28.871094 35.871094 21.480469 C 42.554688 14.089844 49.558594 8.359375 55.382812 6.890625 C 61.203125 5.425781 60.65625 9.867188 59.945312 10.472656 C 59.210938 10.488281 57.796875 10.648438 56.996094 11.203125 C 55.742188 12.070312 54.070312 13.65625 53.964844 16.175781 C 53.785156 20.050781 58.785156 20.730469 62.398438 12.613281 C 64.863281 7.074219 60.953125 3.3125 57.707031 2.953125 C 53.253906 2.453125 46.449219 4.007812 38.324219 9.238281 C 24.1875 18.347656 5.277344 38.574219 4.792969 61.015625 C 4.519531 73.816406 12.859375 81.019531 24.304688 81.019531 C 35.75 81.019531 51.289062 73.992188 66.460938 73.8125 C 75.855469 73.734375 81.9375 77.035156 85.015625 82.410156 C 85.015625 82.410156 88.078125 77.308594 94.890625 77.035156 C 101.632812 76.761719 109.054688 78.65625 115.148438 82.949219 C 113.113281 80.003906 107.367188 75.691406 102.5625 72.71875 Z M 102.566406 72.71875 "/>
<path style=" stroke:none;fill-rule:nonzero;fill:rgb(95.686275%,0%,3.529412%);fill-opacity:1;" d="M 60.410156 22.300781 C 52.652344 20.320312 39.765625 33.5625 34.332031 44.339844 C 30.984375 50.988281 29.515625 59.34375 35.476562 61.515625 C 41.441406 63.691406 51.558594 52.792969 53.9375 49.625 C 56.316406 46.453125 60.210938 40.105469 60.210938 40.105469 C 60.210938 40.105469 61.40625 39.875 62.1875 39.691406 C 62.96875 39.507812 64.234375 39.148438 64.234375 39.148438 C 64.234375 39.148438 62.769531 41.769531 61.445312 44.457031 C 59.875 47.640625 55.609375 58.246094 63.84375 61.425781 C 71.710938 64.464844 82.910156 51.796875 83.5 51.554688 C 83.5 51.554688 80.164062 60.1875 85.34375 61.515625 C 91.027344 62.972656 97.253906 55.675781 97.253906 55.675781 C 97.253906 55.675781 95.941406 61.15625 100.371094 61.667969 C 108.296875 62.589844 122.324219 42.257812 122.324219 42.257812 L 119.519531 42.257812 C 119.519531 42.257812 112.382812 51.464844 108.953125 53.367188 C 105.519531 55.269531 106.753906 51.886719 107.6875 50.378906 C 108.875 48.457031 124.039062 23.058594 124.039062 23.058594 L 116 23.058594 L 115.066406 24.535156 C 115.066406 24.535156 113.410156 22 110.640625 22.179688 C 102.582031 22.707031 92.992188 35.585938 88.777344 41.257812 C 84.5625 46.9375 75.46875 57.773438 70.679688 55.839844 C 65.460938 53.734375 70.652344 44.066406 74.082031 38.390625 C 77.820312 32.214844 84.441406 26.09375 87.0625 26.046875 C 90.28125 25.984375 89.019531 28.914062 89.019531 28.914062 C 89.019531 28.914062 86.609375 28.613281 84.863281 30.816406 C 83.628906 32.375 82.605469 34.648438 83.777344 35.886719 C 85.675781 37.886719 88.144531 35.855469 89.621094 33.589844 C 94.21875 26.53125 90.855469 22.8125 87.242188 22.269531 C 79.546875 21.113281 72.457031 31.027344 67.066406 34.707031 C 63.328125 37.261719 61.765625 37.0625 61.765625 37.0625 C 61.765625 37.0625 68.253906 24.304688 60.410156 22.300781 Z M 95.25 45.125 C 97.578125 40.859375 100.746094 36.742188 104.871094 31.578125 C 109 26.417969 111.050781 26 112.292969 26.054688 C 113.339844 26.101562 113.488281 27.203125 113.488281 27.203125 C 113.488281 27.203125 104.523438 42.859375 101.273438 47.328125 C 100.210938 48.789062 99.300781 50.023438 98.5 50.949219 C 96.789062 52.933594 95.546875 53.890625 94.585938 54.128906 C 94.085938 54.253906 93.464844 54.222656 93.050781 53.96875 C 91.589844 53.078125 92.703125 49.789062 95.25 45.125 Z M 57.207031 40.042969 C 57.097656 40.296875 54.539062 44.539062 52.386719 47.296875 C 50.066406 50.273438 45.785156 54.765625 43.230469 53.820312 C 39.242188 52.339844 43.496094 43.6875 46.367188 39.460938 C 49.238281 35.234375 49.660156 34.691406 49.742188 34.582031 C 49.824219 34.46875 49.902344 34.367188 49.972656 34.5 C 50.042969 34.628906 50.957031 36.511719 52.933594 37.78125 C 54.910156 39.046875 56.9375 39.632812 57.078125 39.683594 C 57.21875 39.730469 57.320312 39.792969 57.210938 40.042969 Z M 60.546875 33.4375 C 59.804688 35.386719 59.140625 36.613281 59.003906 36.902344 C 58.785156 37.367188 58.234375 37.21875 58.234375 37.21875 C 57.605469 37.191406 52.722656 36.074219 52.75 32.148438 C 52.777344 28.328125 58.152344 24.582031 60.261719 26.183594 C 62.226562 27.675781 61.289062 31.492188 60.546875 33.4375 Z M 238.046875 76.367188 C 237.574219 76.097656 237.054688 75.96875 236.480469 75.96875 C 235.90625 75.96875 235.382812 76.101562 234.914062 76.367188 C 234.445312 76.632812 234.074219 76.996094 233.804688 77.453125 C 233.539062 77.914062 233.402344 78.414062 233.402344 78.953125 C 233.402344 79.492188 233.535156 80 233.804688 80.457031 C 234.074219 80.914062 234.445312 81.273438 234.914062 81.539062 C 235.382812 81.804688 235.90625 81.9375 236.480469 81.9375 C 237.054688 81.9375 237.574219 81.804688 238.046875 81.539062 C 238.515625 81.273438 238.882812 80.914062 239.152344 80.457031 C 239.421875 80 239.558594 79.5 239.558594 78.953125 C 239.558594 78.40625 239.421875 77.914062 239.152344 77.453125 C 238.882812 76.996094 238.515625 76.632812 238.046875 76.367188 Z M 238.597656 80.1875 C 238.394531 80.554688 238.105469 80.839844 237.738281 81.046875 C 237.371094 81.253906 236.953125 81.359375 236.480469 81.359375 C 236.007812 81.359375 235.585938 81.253906 235.21875 81.046875 C 234.851562 80.839844 234.566406 80.554688 234.363281 80.1875 C 234.160156 79.824219 234.058594 79.410156 234.058594 78.953125 C 234.058594 78.492188 234.160156 78.09375 234.363281 77.726562 C 234.566406 77.363281 234.855469 77.078125 235.226562 76.867188 C 235.597656 76.660156 236.015625 76.558594 236.480469 76.558594 C 236.945312 76.558594 237.363281 76.660156 237.734375 76.867188 C 238.105469 77.078125 238.394531 77.363281 238.597656 77.726562 C 238.800781 78.09375 238.902344 78.5 238.902344 78.953125 C 238.902344 79.402344 238.800781 79.824219 238.597656 80.1875 Z M 238.597656 80.1875 "/>
<path style=" stroke:none;fill-rule:nonzero;fill:rgb(95.686275%,0%,3.529412%);fill-opacity:1;" d="M 237.636719 78.902344 C 237.722656 78.761719 237.765625 78.601562 237.765625 78.429688 C 237.765625 78.1875 237.6875 77.984375 237.53125 77.820312 C 237.375 77.65625 237.167969 77.574219 236.90625 77.574219 L 235.34375 77.574219 L 235.34375 80.277344 L 236.03125 80.277344 L 236.03125 79.292969 L 236.554688 79.292969 L 237.1875 80.277344 L 237.972656 80.277344 L 237.265625 79.226562 C 237.425781 79.152344 237.550781 79.046875 237.636719 78.902344 Z M 236.980469 78.617188 C 236.929688 78.667969 236.859375 78.691406 236.773438 78.691406 L 236.03125 78.691406 L 236.03125 78.164062 L 236.773438 78.164062 C 236.859375 78.164062 236.929688 78.191406 236.980469 78.234375 C 237.03125 78.28125 237.058594 78.347656 237.058594 78.425781 C 237.058594 78.507812 237.03125 78.570312 236.980469 78.617188 Z M 236.980469 78.617188 "/>
</g>
</svg>
