<?xml version="1.0" encoding="UTF-8"?>
<svg xmlns="http://www.w3.org/2000/svg" xmlns:xlink="http://www.w3.org/1999/xlink" width="264px" height="218px" viewBox="0 0 263 218" version="1.1">
<g id="surface1">
<path style=" stroke:none;fill-rule:nonzero;fill:rgb(5.882353%,22.745098%,59.215686%);fill-opacity:1;" d="M 230.621094 109 C 230.621094 168.785156 181.539062 217.988281 121.898438 217.988281 C 62.261719 217.988281 13.179688 168.78125 13.179688 109 C 13.179688 49.210938 61.113281 0.0117188 121.898438 0.0117188 C 180.386719 0.0117188 230.621094 49.214844 230.621094 109 "/>
<path style=" stroke:none;fill-rule:nonzero;fill:rgb(100%,100%,100%);fill-opacity:1;" d="M 146.421875 166.363281 C 192.871094 185.539062 184.8125 137.082031 160.050781 99.980469 C 146.019531 78.964844 127.71875 61.449219 116.175781 53 C 77.898438 24.96875 54.273438 41.96875 81.300781 97.253906 C 90.039062 115.125 101.261719 127.191406 110.027344 138.5625 C 116.722656 147.242188 129.761719 151.589844 125.167969 155.707031 C 119.992188 160.351562 107.457031 139.863281 107.457031 139.863281 C 98.199219 128.660156 89.378906 116.707031 80.285156 100.300781 C 59.507812 62.832031 62.503906 24.589844 100.109375 41.25 C 132.027344 55.394531 162.507812 95.066406 174.765625 123.238281 C 180.425781 136.25 195.859375 187.71875 146.703125 166.90625 "/>
<path style=" stroke:none;fill-rule:nonzero;fill:rgb(96.862745%,25.490196%,3.921569%);fill-opacity:1;" d="M 1.984375 141.308594 C 22.417969 127.652344 41.789062 118.835938 74.757812 107.90625 C 121.089844 92.546875 155.957031 82.222656 198.738281 60.644531 C 217.890625 50.988281 251.117188 29.328125 263 10.5 C 259.441406 17.789062 248.421875 31.972656 243.4375 38.246094 C 185.386719 111.183594 61.742188 107.046875 2.800781 142.0625 "/>
<path style=" stroke:none;fill-rule:nonzero;fill:rgb(100%,100%,100%);fill-opacity:1;" d="M 31.625 88 C 50.328125 88.148438 48.492188 87.960938 48.710938 88.183594 C 49.039062 88.183594 63.644531 113.421875 63.644531 113.644531 C 63.644531 113.75 63.535156 104.671875 63.535156 93.320312 C 63.535156 92.007812 59.941406 88.183594 60.046875 88.183594 C 65.386719 88.183594 72.363281 88.292969 72.363281 88.292969 C 69.75 91.351562 69.226562 91.101562 69.203125 92.992188 C 69.128906 99.070312 69.0625 110.308594 69.203125 122.929688 C 69.222656 124.820312 70.621094 125.550781 72.910156 128.828125 L 55.796875 128.828125 C 50.238281 119.542969 40.050781 102.121094 40.101562 102.171875 C 40.179688 102.25 39.882812 113.097656 40.210938 121.835938 C 40.320312 124.726562 41.628906 125.660156 44.027344 128.285156 C 44.027344 128.285156 46.785156 128.210938 30.617188 128.394531 C 35.523438 125.769531 34.871094 122.492188 34.871094 122.382812 C 34.695312 110.308594 34.832031 99.984375 34.832031 93.320312 C 34.832031 92.226562 34.757812 92.335938 31.382812 88.183594 M 90.101562 106.648438 C 91.671875 101.179688 93.011719 96.289062 93.648438 93.101562 C 93.757812 92.554688 92.449219 90.589844 90.378906 88.621094 L 90.234375 88.316406 C 100.21875 88.347656 110.652344 88.40625 110.652344 88.40625 C 113.375 95.066406 119.589844 113.75 124.273438 125.226562 C 125.515625 128.257812 127.65625 128.832031 127.65625 128.832031 C 119.152344 128.722656 103.375 128.796875 103.460938 128.722656 C 107.710938 124.894531 107.164062 124.894531 105.3125 119.328125 L 92.015625 119.328125 C 89.289062 125.664062 92.863281 128.636719 93.320312 128.613281 C 90.296875 128.773438 80.027344 128.613281 80.027344 128.613281 C 85.585938 124.679688 85.257812 123.476562 85.257812 123.476562 C 86.78125 118.027344 88.550781 112.054688 90.101562 106.648438 L 95.558594 106.648438 L 93.214844 114.1875 L 103.789062 114.1875 L 97.902344 99.109375 L 95.558594 106.648438 L 90.101562 106.648438 M 181.441406 107.195312 C 183.007812 101.726562 184.351562 96.835938 184.988281 93.648438 C 185.09375 93.101562 183.785156 91.136719 181.714844 89.167969 L 181.570312 88.863281 C 191.558594 88.894531 201.992188 88.949219 201.992188 88.949219 C 204.714844 95.617188 210.925781 114.296875 215.613281 125.773438 C 216.851562 128.804688 218.988281 129.375 218.988281 129.375 C 210.492188 129.269531 194.714844 129.34375 194.796875 129.269531 C 199.046875 125.445312 198.503906 125.445312 196.652344 119.875 L 183.351562 119.875 C 180.625 126.210938 184.199219 129.183594 184.65625 129.164062 C 181.632812 129.316406 171.359375 129.164062 171.359375 129.164062 C 176.917969 125.226562 176.59375 124.027344 176.59375 124.027344 C 178.121094 118.570312 179.890625 112.601562 181.441406 107.195312 L 186.894531 107.195312 C 185.71875 110.96875 184.554688 114.738281 184.554688 114.738281 L 195.121094 114.738281 L 189.234375 99.65625 C 189.234375 99.65625 188.066406 103.425781 186.894531 107.195312 L 181.441406 107.195312 M 164.246094 98.238281 C 164.03125 90.476562 164.246094 87.964844 164.246094 87.964844 C 160.867188 90.699219 162.574219 90.351562 154.113281 88.949219 C 129.730469 84.914062 127.875 107.753906 141.140625 112.875 C 152.28125 117.179688 156.226562 118.023438 154.546875 122.054688 C 154 123.371094 143.867188 128.175781 133.402344 118.449219 L 133.617188 132 C 134.925781 130.648438 138.523438 128.175781 138.523438 128.175781 C 138.628906 128.175781 149.863281 133.140625 159.992188 127.957031 C 175.582031 119.980469 167.800781 107.074219 151.167969 101.953125 C 137.324219 97.691406 150.402344 87.746094 164.132812 98.347656 M 123.429688 9.90625 C 123.429688 10.398438 123.035156 10.796875 122.542969 10.796875 C 122.054688 10.792969 121.660156 10.398438 121.660156 9.90625 C 121.660156 9.425781 122.0625 9.023438 122.542969 9.023438 C 123.03125 9.023438 123.425781 9.417969 123.429688 9.90625 M 129.570312 23.363281 C 129.570312 23.960938 129.074219 24.457031 128.480469 24.457031 C 127.878906 24.453125 127.390625 23.964844 127.390625 23.363281 C 127.390625 22.765625 127.882812 22.269531 128.480469 22.269531 C 129.074219 22.269531 129.570312 22.765625 129.570312 23.363281 M 145.5 45.351562 C 145.5 45.949219 145.011719 46.445312 144.410156 46.445312 C 143.808594 46.441406 143.324219 45.953125 143.320312 45.351562 C 143.320312 44.75 143.777344 44.253906 144.375 44.253906 C 144.976562 44.257812 145.5 44.75 145.5 45.351562 M 119.890625 30.941406 C 119.886719 31.433594 119.492188 31.828125 119.003906 31.828125 C 118.515625 31.828125 118.121094 31.433594 118.117188 30.941406 C 118.117188 30.457031 118.519531 30.054688 119.003906 30.054688 C 119.492188 30.054688 119.886719 30.453125 119.890625 30.941406 M 129.433594 35.996094 C 129.429688 36.484375 129.035156 36.878906 128.546875 36.882812 C 128.0625 36.878906 127.664062 36.484375 127.660156 35.996094 C 127.660156 35.511719 128.0625 35.109375 128.546875 35.109375 C 129.03125 35.109375 129.433594 35.511719 129.433594 35.996094 M 117.03125 21.859375 C 117.03125 22.457031 116.539062 22.953125 115.941406 22.953125 C 115.34375 22.953125 114.851562 22.460938 114.851562 21.859375 C 114.851562 21.261719 115.34375 20.765625 115.941406 20.765625 C 116.539062 20.765625 117.03125 21.257812 117.03125 21.859375 M 102.59375 30.667969 C 102.59375 31.15625 102.195312 31.558594 101.707031 31.558594 C 101.21875 31.554688 100.824219 31.160156 100.820312 30.667969 C 100.820312 30.183594 101.222656 29.78125 101.707031 29.78125 C 102.195312 29.78125 102.589844 30.179688 102.59375 30.667969 M 105.175781 32.441406 C 105.171875 32.933594 104.777344 33.332031 104.289062 33.332031 C 103.800781 33.332031 103.402344 32.933594 103.402344 32.441406 C 103.421875 31.96875 103.8125 31.59375 104.289062 31.59375 C 104.761719 31.59375 105.152344 31.96875 105.175781 32.441406 M 107.765625 34.21875 C 107.765625 34.710938 107.367188 35.105469 106.878906 35.109375 C 106.390625 35.105469 105.996094 34.710938 105.996094 34.21875 C 105.996094 33.734375 106.394531 33.335938 106.878906 33.335938 C 107.367188 33.335938 107.765625 33.734375 107.765625 34.21875 M 103.820312 37.636719 C 103.8125 38.125 103.421875 38.519531 102.933594 38.523438 C 102.445312 38.519531 102.050781 38.125 102.046875 37.636719 C 102.046875 37.148438 102.445312 36.75 102.933594 36.75 C 103.417969 36.75 103.820312 37.148438 103.820312 37.636719 M 83.246094 52.113281 C 83.242188 52.601562 82.84375 52.996094 82.359375 53 C 81.871094 53 81.472656 52.597656 81.472656 52.113281 C 81.472656 51.625 81.871094 51.222656 82.359375 51.222656 C 82.84375 51.222656 83.246094 51.625 83.246094 52.113281 M 87.058594 56.757812 C 87.054688 57.246094 86.660156 57.640625 86.171875 57.644531 C 85.683594 57.640625 85.289062 57.246094 85.285156 56.757812 C 85.285156 56.269531 85.6875 55.871094 86.171875 55.871094 C 86.65625 55.871094 87.058594 56.269531 87.058594 56.757812 M 84.027344 131.742188 C 84.023438 132.230469 83.628906 132.628906 83.140625 132.628906 C 82.65625 132.628906 82.253906 132.226562 82.253906 131.742188 C 82.253906 131.257812 82.65625 130.851562 83.140625 130.851562 C 83.628906 130.851562 84.027344 131.257812 84.027344 131.742188 M 84.570312 152.429688 C 84.570312 153.027344 84.078125 153.523438 83.480469 153.523438 C 82.882812 153.523438 82.390625 153.03125 82.390625 152.429688 C 82.390625 151.832031 82.882812 151.335938 83.480469 151.335938 C 84.082031 151.339844 84.566406 151.828125 84.570312 152.429688 M 72.851562 163.023438 C 72.847656 163.511719 72.453125 163.90625 71.96875 163.910156 C 71.480469 163.90625 71.085938 163.511719 71.082031 163.023438 C 71.082031 162.535156 71.484375 162.136719 71.96875 162.136719 C 72.453125 162.136719 72.851562 162.535156 72.851562 163.023438 M 58.820312 167.316406 C 58.816406 167.917969 58.332031 168.40625 57.730469 168.410156 C 57.128906 168.40625 56.640625 167.917969 56.640625 167.316406 C 56.640625 166.714844 57.132812 166.222656 57.730469 166.222656 C 58.332031 166.226562 58.816406 166.710938 58.820312 167.316406 M 55.960938 157.757812 C 55.960938 158.355469 55.46875 158.847656 54.871094 158.847656 C 54.273438 158.847656 53.785156 158.359375 53.78125 157.757812 C 53.785156 157.15625 54.269531 156.667969 54.871094 156.664062 C 55.46875 156.664062 55.960938 157.160156 55.960938 157.757812 M 54.328125 163.835938 C 54.328125 164.324219 53.925781 164.726562 53.441406 164.726562 C 52.957031 164.726562 52.554688 164.324219 52.554688 163.835938 C 52.554688 163.351562 52.957031 162.949219 53.441406 162.949219 C 53.925781 162.949219 54.328125 163.351562 54.328125 163.835938 M 43.832031 158.785156 C 43.832031 159.273438 43.4375 159.671875 42.949219 159.675781 C 42.460938 159.671875 42.066406 159.277344 42.0625 158.785156 C 42.0625 158.304688 42.464844 157.898438 42.949219 157.898438 C 43.433594 157.898438 43.832031 158.300781 43.832031 158.785156 M 80.480469 175.855469 C 80.480469 176.34375 80.117188 176.746094 79.632812 176.746094 C 79.144531 176.746094 78.710938 176.34375 78.710938 175.855469 C 78.710938 175.371094 79.113281 174.96875 79.597656 174.96875 C 80.085938 174.96875 80.480469 175.371094 80.480469 175.855469 M 91.519531 167.734375 C 91.519531 168.332031 91.0625 168.828125 90.464844 168.828125 C 89.867188 168.828125 89.339844 168.335938 89.339844 167.734375 C 89.339844 167.136719 89.832031 166.640625 90.429688 166.640625 C 91.03125 166.644531 91.515625 167.128906 91.519531 167.734375 M 92.785156 178.179688 C 92.785156 178.664062 92.347656 179.070312 91.863281 179.070312 C 91.375 179.066406 90.980469 178.667969 90.976562 178.179688 C 90.976562 177.695312 91.378906 177.292969 91.863281 177.292969 C 92.347656 177.292969 92.785156 177.691406 92.785156 178.179688 M 138.144531 168.203125 C 138.140625 168.691406 137.75 169.089844 137.261719 169.09375 C 136.773438 169.089844 136.378906 168.695312 136.371094 168.203125 C 136.371094 167.714844 136.773438 167.316406 137.261719 167.316406 C 137.746094 167.316406 138.144531 167.714844 138.144531 168.203125 M 117.03125 175.714844 C 117.03125 176.207031 116.632812 176.601562 116.144531 176.601562 C 115.660156 176.601562 115.265625 176.207031 115.261719 175.714844 C 115.261719 175.230469 115.664062 174.828125 116.144531 174.828125 C 116.632812 174.828125 117.03125 175.230469 117.03125 175.714844 M 173.84375 186.511719 C 173.839844 187.003906 173.445312 187.398438 172.957031 187.402344 C 172.46875 187.398438 172.074219 187.003906 172.070312 186.511719 C 172.070312 186.027344 172.472656 185.625 172.957031 185.625 C 173.441406 185.625 173.84375 186.027344 173.84375 186.511719 M 178.472656 144.507812 C 178.46875 145.113281 177.980469 145.601562 177.378906 145.605469 C 176.78125 145.601562 176.292969 145.113281 176.289062 144.507812 C 176.289062 143.910156 176.78125 143.414062 177.378906 143.414062 C 177.980469 143.417969 178.46875 143.90625 178.472656 144.507812 M 169.757812 150.449219 C 169.753906 150.941406 169.359375 151.335938 168.871094 151.339844 C 168.386719 151.339844 167.988281 150.9375 167.988281 150.449219 C 167.988281 149.960938 168.386719 149.5625 168.871094 149.5625 C 169.359375 149.5625 169.757812 149.960938 169.757812 150.449219 M 178.34375 152.160156 C 178.34375 152.761719 177.851562 153.257812 177.253906 153.257812 C 176.652344 153.257812 176.160156 152.761719 176.160156 152.160156 C 176.160156 151.5625 176.652344 151.066406 177.253906 151.066406 C 177.851562 151.066406 178.34375 151.5625 178.34375 152.160156 M 169.757812 162.746094 C 169.753906 163.234375 169.359375 163.632812 168.871094 163.632812 C 168.382812 163.628906 167.992188 163.234375 167.988281 162.746094 C 167.988281 162.257812 168.386719 161.855469 168.871094 161.855469 C 169.359375 161.855469 169.757812 162.257812 169.757812 162.746094 M 191.960938 138.570312 C 191.960938 139.054688 191.558594 139.457031 191.074219 139.457031 C 190.585938 139.453125 190.195312 139.058594 190.191406 138.570312 C 190.191406 138.082031 190.589844 137.683594 191.074219 137.683594 C 191.558594 137.683594 191.960938 138.082031 191.960938 138.570312 M 194.109375 143.964844 C 194.109375 144.5625 193.652344 145.058594 193.054688 145.058594 C 192.457031 145.058594 191.929688 144.566406 191.929688 143.964844 C 191.929688 143.363281 192.421875 142.871094 193.019531 142.871094 C 193.617188 142.871094 194.109375 143.363281 194.109375 143.964844 M 209.40625 150.386719 C 209.40625 150.984375 208.917969 151.476562 208.3125 151.476562 C 207.710938 151.476562 207.226562 150.988281 207.222656 150.386719 C 207.226562 149.78125 207.710938 149.292969 208.3125 149.289062 C 208.914062 149.292969 209.402344 149.78125 209.40625 150.386719 M 193.867188 161.792969 C 193.863281 162.28125 193.46875 162.679688 192.980469 162.679688 C 192.492188 162.679688 192.097656 162.28125 192.09375 161.792969 C 192.09375 161.304688 192.496094 160.90625 192.980469 160.90625 C 193.464844 160.90625 193.867188 161.304688 193.867188 161.792969 M 203.679688 152.503906 C 203.675781 152.992188 203.28125 153.386719 202.792969 153.390625 C 202.308594 153.386719 201.914062 152.992188 201.910156 152.503906 C 201.910156 152.019531 202.3125 151.617188 202.792969 151.617188 C 203.277344 151.617188 203.679688 152.015625 203.679688 152.503906 M 201.871094 166.84375 C 201.871094 167.332031 201.476562 167.730469 200.988281 167.730469 C 200.5 167.730469 200.101562 167.335938 200.101562 166.84375 C 200.101562 166.359375 200.5 165.957031 200.988281 165.957031 C 201.472656 165.957031 201.871094 166.359375 201.871094 166.84375 M 206.03125 143.011719 C 206.03125 143.761719 205.414062 144.375 204.667969 144.375 C 203.917969 144.375 203.304688 143.761719 203.304688 143.011719 C 203.304688 142.261719 203.917969 141.644531 204.667969 141.644531 C 205.414062 141.644531 206.03125 142.261719 206.03125 143.011719 "/>
<path style=" stroke:none;fill-rule:nonzero;fill:rgb(100%,100%,100%);fill-opacity:1;" d="M 204.664062 138.847656 L 204.257812 142.601562 L 200.546875 143.011719 L 204.292969 143.421875 L 204.699219 147.316406 L 205.109375 143.421875 L 208.785156 142.941406 L 205.078125 142.601562 L 204.664062 138.847656 M 196.488281 166.769531 C 196.488281 167.519531 195.871094 168.136719 195.125 168.136719 C 194.371094 168.132812 193.765625 167.523438 193.761719 166.769531 C 193.761719 166.019531 194.378906 165.40625 195.125 165.40625 C 195.875 165.40625 196.484375 166.015625 196.488281 166.769531 "/>
<path style=" stroke:none;fill-rule:nonzero;fill:rgb(100%,100%,100%);fill-opacity:1;" d="M 195.132812 162.605469 L 194.722656 166.363281 L 191.011719 166.769531 L 194.757812 167.183594 L 195.167969 171.074219 L 195.578125 167.183594 L 199.253906 166.703125 L 195.539062 166.359375 L 195.132812 162.605469 M 94.859375 53.953125 C 94.859375 54.703125 94.242188 55.320312 93.496094 55.320312 C 92.746094 55.316406 92.136719 54.707031 92.132812 53.953125 C 92.132812 53.203125 92.746094 52.589844 93.496094 52.589844 C 94.242188 52.589844 94.859375 53.203125 94.859375 53.953125 "/>
<path style=" stroke:none;fill-rule:nonzero;fill:rgb(100%,100%,100%);fill-opacity:1;" d="M 93.492188 49.789062 L 93.082031 53.542969 L 89.371094 53.957031 L 93.117188 54.363281 L 93.527344 58.257812 L 93.933594 54.363281 L 97.613281 53.886719 L 93.898438 53.542969 L 93.492188 49.789062 M 145.539062 20.902344 C 145.539062 21.652344 144.921875 22.269531 144.175781 22.269531 C 143.425781 22.269531 142.8125 21.652344 142.8125 20.902344 C 142.8125 20.152344 143.425781 19.535156 144.175781 19.535156 C 144.921875 19.535156 145.539062 20.15625 145.539062 20.902344 "/>
<path style=" stroke:none;fill-rule:nonzero;fill:rgb(100%,100%,100%);fill-opacity:1;" d="M 144.175781 16.734375 L 143.769531 20.492188 L 140.058594 20.902344 L 143.804688 21.3125 L 144.207031 25.207031 L 144.617188 21.3125 L 148.292969 20.832031 L 144.582031 20.492188 L 144.175781 16.734375 M 83.921875 188.632812 C 83.921875 189.382812 83.308594 190 82.5625 190 C 81.808594 189.996094 81.203125 189.386719 81.199219 188.632812 C 81.199219 187.882812 81.8125 187.265625 82.5625 187.265625 C 83.308594 187.265625 83.921875 187.886719 83.921875 188.632812 "/>
<path style=" stroke:none;fill-rule:nonzero;fill:rgb(100%,100%,100%);fill-opacity:1;" d="M 82.59375 184.460938 L 82.1875 188.21875 L 78.472656 188.628906 L 82.21875 189.035156 L 82.628906 192.929688 L 83.035156 189.035156 L 86.714844 188.558594 L 83.003906 188.214844 L 82.59375 184.460938 "/>
<path style=" stroke:none;fill-rule:nonzero;fill:rgb(96.862745%,25.490196%,3.921569%);fill-opacity:1;" d="M 262.988281 10.503906 C 246.421875 59.828125 180.046875 97.914062 124.175781 134.273438 C 90.46875 156.21875 57.003906 181.472656 33.964844 202.960938 C 27.894531 208.628906 35.203125 200.84375 32.875 203.238281 C 65.027344 166.089844 102.011719 143.960938 122.449219 130.03125 C 157.015625 106.46875 176.671875 100.527344 236.304688 45.410156 "/>
<path style=" stroke:none;fill-rule:nonzero;fill:rgb(93.333333%,16.078431%,23.921569%);fill-opacity:1;" d="M 15.800781 132.703125 C 9.851562 135.621094 4.523438 138.507812 0 141.324219 L 2.75 142.332031 C 6.707031 139.886719 11.453125 137.339844 16.457031 135.09375 M 47.214844 187.902344 C 41.554688 192.855469 35.988281 197.914062 30.515625 203.082031 L 30.269531 206.847656 C 35.429688 201.507812 41.773438 195.746094 49.09375 189.628906 "/>
<path style=" stroke:none;fill-rule:nonzero;fill:rgb(100%,100%,100%);fill-opacity:1;" d="M 146.421875 166.363281 C 192.871094 185.539062 184.8125 137.082031 160.050781 99.980469 C 146.015625 78.964844 128.710938 62.289062 116.171875 53 C 101.53125 42.152344 100.101562 41.253906 100.101562 41.253906 C 132.796875 56.824219 162.5 95.066406 174.757812 123.242188 C 180.417969 136.25 195.851562 187.722656 146.691406 166.910156 "/>
</g>
</svg>
